# File created by Blade
# Date/Time:  Thu Sep 25 19:04:16 2014
# Frame Rate: 120.000 fps
#------------------------------------------------------
:FULLY-SPECIFIED
:DEGREES
592
root -3.534887 29.850000 -9.057290 54.672039 27.114335 -42.840272
Spine 17.946515 -19.449350 -36.814395
Head -52.804659 -14.170323 28.044706
LeftShoulder -4.433181 4.050591 38.389939
LeftArm 3.541842 -30.370360 -17.413582
LeftForeArm 3.640094 -0.000000 22.674461
LeftHand -24.946157 -0.000000 15.311678
LeftHandThumb1 -26.253704 0.000000 33.147579
RightShoulder -19.420352 6.836498 -39.852779
RightArm -46.454809 -21.152003 67.620936
RightForeArm -11.810327 -0.000000 9.936194
RightHand -15.562792 -0.000000 11.229759
RightHandThumb1 -24.326973 -0.000000 -32.862282
LeftUpLeg -83.139630 57.107549 26.717717
LeftLeg -4.142977 -0.000000 0.000000
LeftFoot 14.662065 3.566157 -36.293835
LeftToeBase 10.640373 -0.000000 -0.000000
RightUpLeg -59.466257 7.827677 32.702761
RightLeg -2.543393 -0.000000 0.000000
RightFoot -0.862989 -15.627145 18.267042
RightToeBase 4.041911 -0.000000 -0.000000
593
root -3.528463 29.852417 -9.049484 54.720859 27.094487 -42.721823
Spine 17.950293 -19.438295 -36.786570
Head -52.836509 -14.047502 28.213874
LeftShoulder -4.446101 4.105935 38.399814
LeftArm 3.858627 -29.823157 -17.415719
LeftForeArm 3.159348 -0.000000 22.138105
LeftHand -24.802780 0.000000 14.875589
LeftHandThumb1 -26.253704 0.000000 33.147579
RightShoulder -19.394022 6.859505 -39.690192
RightArm -46.493468 -21.087244 67.523405
RightForeArm -11.691598 -0.000000 9.944455
RightHand -15.520711 0.000000 11.417170
RightHandThumb1 -24.326973 -0.000000 -32.862282
LeftUpLeg -82.918844 57.014795 26.852935
LeftLeg -4.204723 -0.000000 0.000000
LeftFoot 14.621681 3.665634 -36.311222
LeftToeBase 10.411065 -0.000000 -0.000000
RightUpLeg -59.494747 7.737558 32.659387
RightLeg -2.525897 -0.000000 0.000000
RightFoot -0.852344 -15.608711 18.240706
RightToeBase 4.058039 -0.000000 -0.000000
594
root -3.521035 29.855420 -9.039645 54.759905 27.080481 -42.599877
Spine 17.954602 -19.445147 -36.727743
Head -52.873047 -13.913443 28.297207
LeftShoulder -4.437418 4.146716 38.371782
LeftArm 4.162962 -29.404937 -17.414746
LeftForeArm 2.928601 -0.000000 21.563891
LeftHand -24.627855 -0.000000 14.365723
LeftHandThumb1 -26.253704 0.000000 33.147579
RightShoulder -19.378470 6.832079 -39.594225
RightArm -46.477325 -21.064691 67.581881
RightForeArm -11.720857 -0.000000 9.884804
RightHand -15.534512 -0.000000 11.329113
RightHandThumb1 -24.326973 -0.000000 -32.862282
LeftUpLeg -82.674938 56.911005 27.012993
LeftLeg -4.256890 -0.000000 0.000000
LeftFoot 14.497611 3.811014 -36.465849
LeftToeBase 10.451113 -0.000000 -0.000000
RightUpLeg -59.496325 7.645423 32.601932
RightLeg -2.551234 -0.000000 0.000000
RightFoot -0.838679 -15.589615 18.269796
RightToeBase 4.029855 -0.000000 -0.000000
595
root -3.510854 29.857292 -9.030694 54.806667 27.028760 -42.462971
Spine 17.962844 -19.444816 -36.702778
Head -52.952471 -13.847213 28.443891
LeftShoulder -4.469945 4.174881 38.356708
LeftArm 4.456460 -28.757963 -17.377602
LeftForeArm 2.651853 -0.000000 21.007559
LeftHand -24.448301 -0.000000 13.659899
LeftHandThumb1 -26.253704 0.000000 33.147579
RightShoulder -19.389283 6.866845 -39.493887
RightArm -46.511557 -21.105400 67.641801
RightForeArm -11.689651 0.000000 9.851634
RightHand -15.472679 -0.000000 11.512622
RightHandThumb1 -24.326973 -0.000000 -32.862282
LeftUpLeg -82.403333 56.815253 27.162219
LeftLeg -4.327088 -0.000000 0.000000
LeftFoot 14.407219 3.899681 -36.549330
LeftToeBase 10.463351 -0.000000 -0.000000
RightUpLeg -59.495767 7.563614 32.486834
RightLeg -2.582582 -0.000000 0.000000
RightFoot -0.814731 -15.593060 18.417214
RightToeBase 3.901391 -0.000000 -0.000000
596
root -3.503333 29.859728 -9.020806 54.830749 26.990213 -42.327106
Spine 17.982682 -19.448869 -36.664810
Head -53.003302 -13.639108 28.521790
LeftShoulder -4.481544 4.220635 38.361473
LeftArm 4.726702 -28.146552 -17.360629
LeftForeArm 2.425787 -0.000000 20.457873
LeftHand -24.308694 -0.000000 13.186447
LeftHandThumb1 -26.253704 0.000000 33.147579
RightShoulder -19.373160 6.893457 -39.391257
RightArm -46.532104 -21.067809 67.641367
RightForeArm -11.740808 -0.000000 9.850562
RightHand -15.500273 -0.000000 11.490752
RightHandThumb1 -24.326973 -0.000000 -32.862282
LeftUpLeg -81.995313 56.695220 27.484788
LeftLeg -4.372866 -0.000000 0.000000
LeftFoot 14.242705 4.064495 -36.656123
LeftToeBase 10.478453 -0.000000 -0.000000
RightUpLeg -59.477215 7.472582 32.417470
RightLeg -2.607590 -0.000000 0.000000
RightFoot -0.767075 -15.700422 18.099441
RightToeBase 4.006408 -0.000000 -0.000000
597
root -3.494979 29.862998 -9.012257 54.881761 26.947468 -42.177839
Spine 17.961257 -19.449991 -36.603799
Head -53.035585 -13.557137 28.592406
LeftShoulder -4.435666 4.327944 38.367537
LeftArm 4.968939 -27.633766 -17.361698
LeftForeArm 2.209475 -0.000000 19.948581
LeftHand -24.179389 -0.000000 12.520558
LeftHandThumb1 -26.253704 0.000000 33.147579
RightShoulder -19.381577 6.822269 -39.293450
RightArm -46.464366 -21.091575 67.676543
RightForeArm -11.624283 -0.000000 9.807247
RightHand -15.393816 -0.000000 11.580226
RightHandThumb1 -24.326973 -0.000000 -32.862282
LeftUpLeg -81.614182 56.573173 27.785367
LeftLeg -4.409184 -0.000000 0.000000
LeftFoot 14.049163 4.276392 -36.849339
LeftToeBase 10.645055 -0.000000 -0.000000
RightUpLeg -59.480731 7.379648 32.321471
RightLeg -2.637232 -0.000000 0.000000
RightFoot -0.739382 -15.721335 18.053865
RightToeBase 4.037340 -0.000000 -0.000000
